# xmcd
#
# Track frame offsets: 
#        182
#        21112
#        40095
#        55237
#        66822
#        84267
#        97822
#        112940
#        129270
#        152377
#
# Disc length: 2253 seconds
#
# Revision: 2
# Processed by: cddbd v1.5.1PL0 Copyright (c) Steve Scherf et al.
# Submitted via: ExactAudioCopy v0.95b3
#
DISCID=6708cb0a
DTITLE=Various Artist - Live Action ! - Charly Blues Masterworks - Vol. 15
DYEAR=1992
DGENRE=Blues
TTITLE0=Muddy Waters, Willie Dixon, Buddy Guy - Wee, Wee Baby
TTITLE1=Muddy Waters - Sitting And Thinking
TTITLE2=Buddy Guy - Worried Blues
TTITLE3=Sonny Boy Williamson - Bring It On Home
TTITLE4=Howlin' Wolf - Sugar Mama
TTITLE5=Muddy Waters - Clouds In My Heart
TTITLE6=Howlin' Wolf - May I Have A Talk With You
TTITLE7=Muddy Waters - Got My Mojo Working
TTITLE8=Buddy Guy - Don't Know Which Way To Go
TTITLE9=Muddy Waters - 19 Years Old
EXTD=
EXTT0=
EXTT1=
EXTT2=
EXTT3=
EXTT4=
EXTT5=
EXTT6=
EXTT7=
EXTT8=
EXTT9=
PLAYORDER=
